<?xml version="1.0" encoding="UTF-8" standalone="no"?>
<!-- Created with Inkscape (http://www.inkscape.org/) -->

<svg
   width="256"
   height="256"
   viewBox="0 0 67.733332 67.733333"
   version="1.1"
   id="svg5"
   inkscape:version="1.2.2 (732a01da63, 2022-12-09)"
   sodipodi:docname="logo.svg"
   xmlns:inkscape="http://www.inkscape.org/namespaces/inkscape"
   xmlns:sodipodi="http://sodipodi.sourceforge.net/DTD/sodipodi-0.dtd"
   xmlns="http://www.w3.org/2000/svg"
   xmlns:svg="http://www.w3.org/2000/svg">
  <sodipodi:namedview
     id="namedview7"
     pagecolor="#ffffff"
     bordercolor="#000000"
     borderopacity="0.25"
     inkscape:showpageshadow="2"
     inkscape:pageopacity="0.0"
     inkscape:pagecheckerboard="0"
     inkscape:deskcolor="#d1d1d1"
     inkscape:document-units="mm"
     showgrid="false"
     inkscape:zoom="2.0510462"
     inkscape:cx="166.01284"
     inkscape:cy="107.99367"
     inkscape:window-width="1920"
     inkscape:window-height="1001"
     inkscape:window-x="-9"
     inkscape:window-y="-9"
     inkscape:window-maximized="1"
     inkscape:current-layer="layer1" />
  <defs
     id="defs2">
    <rect
       x="23.78804"
       y="19.306235"
       width="270.2873"
       height="219.60843"
       id="rect1433" />
    <rect
       x="39.991488"
       y="50.334114"
       width="159.27644"
       height="93.773143"
       id="rect1160" />
    <rect
       x="23.78804"
       y="19.306234"
       width="270.28729"
       height="219.60843"
       id="rect1433-9" />
  </defs>
  <g
     inkscape:label="Слой 1"
     inkscape:groupmode="layer"
     id="layer1">
    <g
       aria-label="U"
       transform="matrix(0.83658792,0,0,0.83658792,-15.367461,-100.00302)"
       id="text1431-2"
       style="font-size:192px;-inkscape-font-specification:sans-serif;white-space:pre;fill:#800080;stroke:#ffffff;stroke-width:3.78;stroke-linecap:round;stroke-linejoin:round;stroke-dashoffset:32.9254;stroke-opacity:0.489189;paint-order:markers fill stroke">
      <g
         id="path1084">
        <path
           style="color:#000000;-inkscape-font-specification:Lato;stroke:none;stroke-linecap:butt;stroke-linejoin:miter;stroke-opacity:1;-inkscape-stroke:none"
           d="m 58.875109,186.61068 c 2.848,0 5.392,-0.48 7.632,-1.44 2.24,-0.96 4.128,-2.304 5.664,-4.032 1.568,-1.728 2.752,-3.792 3.552,-6.192 0.832,-2.4 1.248,-5.04 1.248,-7.92 v -37.44665 h 9.264 v 37.44665 c 0,3.968 -0.64,7.648 -1.92,11.04 -1.248,3.392 -3.056,6.336 -5.424,8.832 -2.336,2.464 -5.2,4.4 -8.592,5.808 -3.392,1.408 -7.2,2.112 -11.424,2.112 -4.224,0 -8.032,-0.704 -11.424,-2.112 -3.392,-1.408 -6.272,-3.344 -8.64,-5.808 -2.368,-2.496 -4.192,-5.44 -5.472,-8.832 -1.248,-3.392 -1.872,-7.072 -1.872,-11.04 v -37.44665 h 9.264 v 37.39865 c 0,2.88 0.4,5.52 1.2,7.92 0.832,2.4 2.016,4.464 3.552,6.192 1.568,1.728 3.472,3.088 5.712,4.08 2.272,0.96 4.832,1.44 7.68,1.44 z"
           id="path1089"
           sodipodi:nodetypes="ssccsccsccsssccsccscccs" />
        <path
           style="color:#000000;-inkscape-font-specification:Lato;fill:#ffffff;fill-opacity:0.489189;stroke:none;stroke-linecap:butt;stroke-linejoin:miter;stroke-opacity:1;-inkscape-stroke:none"
           d="m 31.466797,123.32813 a 1.890189,1.890189 0 0 0 -1.890625,1.89062 v 41.80859 c 0,4.16614 0.657818,8.07528 1.988281,11.69141 a 1.890189,1.890189 0 0 0 0.0059,0.0156 c 1.361858,3.60893 3.323951,6.78208 5.869141,9.46485 a 1.890189,1.890189 0 0 0 0.0098,0.01 c 2.55578,2.6594 5.668628,4.74619 9.277343,6.24414 3.648561,1.5145 7.714442,2.25586 12.148438,2.25586 4.433996,0 8.499877,-0.74136 12.148437,-2.25586 3.610659,-1.49876 6.711705,-3.58888 9.238282,-6.2539 2.548115,-2.68585 4.496288,-5.86591 5.826172,-9.48047 1.36217,-3.61559 2.037109,-7.52592 2.037109,-11.69141 v -41.80859 a 1.890189,1.890189 0 0 0 -1.890625,-1.89062 h -9.263672 a 1.890189,1.890189 0 0 0 -1.888672,1.89062 v 41.80859 c 0,2.698 -0.389165,5.12184 -1.144531,7.30078 a 1.890189,1.890189 0 0 0 -0.0078,0.0215 c -0.725888,2.17766 -1.775327,3.99554 -3.158203,5.51953 a 1.890189,1.890189 0 0 0 -0.01367,0.0137 c -1.348373,1.51692 -2.989717,2.69091 -4.996093,3.55078 -1.97343,0.84576 -4.251081,1.28711 -6.886719,1.28711 -2.63082,0 -4.923082,-0.44035 -6.931641,-1.28711 -2.006543,-0.89148 -3.672193,-2.08557 -5.054687,-3.60742 -1.353308,-1.52503 -2.407783,-3.35274 -3.166016,-5.53515 -0.726275,-2.18248 -1.101562,-4.61128 -1.101562,-7.3125 v -41.75977 a 1.890189,1.890189 0 0 0 -1.890625,-1.89062 z m 1.890625,3.78125 h 5.484375 v 39.86914 c 0,3.05499 0.425155,5.90241 1.296875,8.51757 a 1.890189,1.890189 0 0 0 0.0059,0.0215 c 0.903916,2.60745 2.213704,4.90204 3.925781,6.82812 a 1.890189,1.890189 0 0 0 0.01367,0.0156 c 1.748025,1.92639 3.883487,3.4467 6.345703,4.53711 a 1.890189,1.890189 0 0 0 0.0293,0.0137 c 2.532806,1.0702 5.35566,1.58789 8.416016,1.58789 3.060356,0 5.870388,-0.51755 8.376953,-1.5918 2.467456,-1.05748 4.596987,-2.56786 6.318359,-4.5 l 0.0039,-0.004 c 1.750736,-1.93058 3.065947,-4.23796 3.939453,-6.85743 2.53e-4,-7.3e-4 0.0017,-0.001 0.002,-0.002 0.903799,-2.61539 1.345703,-5.46364 1.345703,-8.51758 v -39.91796 h 5.484375 v 39.91796 c 0,3.76477 -0.604778,7.20686 -1.798828,10.3711 a 1.890189,1.890189 0 0 0 -0.0059,0.0156 c -1.166114,3.16944 -2.833605,5.87745 -5.021485,8.1836 -2.145418,2.26297 -4.771978,4.04604 -7.945312,5.36328 -3.135433,1.3015 -6.685223,1.96679 -10.699219,1.96679 -4.013996,0 -7.563786,-0.66529 -10.699219,-1.96679 -3.171586,-1.31651 -5.815378,-3.09844 -7.99414,-5.36328 l -0.002,-0.004 c -2.187424,-2.30651 -3.870956,-5.01749 -5.068359,-8.1875 -1.16372,-3.16582 -1.753906,-6.61201 -1.753906,-10.37891 z"
           id="path1091" />
      </g>
    </g>
    <g
       aria-label="V"
       transform="matrix(0.75552423,0,0,0.78713797,-8.7472487,-93.885625)"
       id="text1431"
       style="font-size:192px;-inkscape-font-specification:sans-serif;white-space:pre;shape-inside:url(#rect1433);display:inline;opacity:1;fill:#800080;stroke:#ffffff;stroke-width:3.78;stroke-linecap:round;stroke-linejoin:round;stroke-dashoffset:32.9254;stroke-opacity:0.554054;paint-order:markers fill stroke">
      <path
         d="m 24.171107,124.05984 h 7.440003 c 0.832,0 1.504,0.208 2.016,0.624 0.512,0.416 0.896,0.944 1.152,1.584 l 19.44,50.84567 c 0.448,1.088 0.848,2.272 1.2,3.552 0.384,1.28 0.752,2.608 1.104,3.984 0.288,-1.376 0.592,-2.704 0.912,-3.984 0.352,-1.28 0.752,-2.464 1.2,-3.552 l 19.344,-50.84567 c 0.224,-0.544 0.608,-1.04 1.152,-1.488 0.544,-0.48 1.216,-0.72 2.016,-0.72 h 7.488 l -28.032,71.10167 h -8.4 z"
         style="font-size:96px;font-family:Lato;-inkscape-font-specification:Lato"
         id="path1032"
         sodipodi:nodetypes="cssccccccccscccc" />
    </g>
  </g>
</svg>
